<svg xmlns="http://www.w3.org/2000/svg" viewBox="0 0 19.32 19.32"><defs><style>.cls-1{fill:#535da6;}</style></defs><g id="Слой_2" data-name="Слой 2"><g id="PRINT1"><g id="соц_сети" data-name="соц сети"><path class="cls-1" d="M8.44,14.3h1.94V9.79h1.16l.34-1.62h-1.5V7.24c0-.38.08-.53.45-.53h1.05V5H10.54c-1.44,0-2.1.63-2.1,1.85v1.3h-1V9.81h1Z"/><path class="cls-1" d="M9.66,19.32a9.66,9.66,0,1,1,9.66-9.66A9.67,9.67,0,0,1,9.66,19.32Zm0-18.21A8.55,8.55,0,1,0,18.2,9.66,8.57,8.57,0,0,0,9.66,1.11Z"/></g></g></g></svg>