<svg xmlns="http://www.w3.org/2000/svg" viewBox="0 0 19.32 19.32"><defs><style>.cls-1{fill:#535da6;}</style></defs><g id="Слой_2" data-name="Слой 2"><g id="PRINT1"><g id="соц_сети" data-name="соц сети"><path class="cls-1" d="M5.41,12.33a5,5,0,0,0,2.67.78c3.86,0,5.07-2.73,4.95-5.18A3,3,0,0,0,13.9,7a3.42,3.42,0,0,1-1,.27,1.68,1.68,0,0,0,.73-1,3.54,3.54,0,0,1-1.11.42,1.72,1.72,0,0,0-1.27-.55A1.79,1.79,0,0,0,9.62,8.43,5.05,5.05,0,0,1,6,6.53a1.74,1.74,0,0,0,.53,2.32,1.79,1.79,0,0,1-.79-.21,1.76,1.76,0,0,0,1.4,1.73,1.85,1.85,0,0,1-.78,0,1.79,1.79,0,0,0,1.7,1.15A3.76,3.76,0,0,1,5.41,12.33Z"/><path class="cls-1" d="M9.66,19.32a9.66,9.66,0,1,1,9.66-9.66A9.67,9.67,0,0,1,9.66,19.32Zm0-18.21A8.55,8.55,0,1,0,18.2,9.66,8.57,8.57,0,0,0,9.66,1.11Z"/></g></g></g></svg>