<svg xmlns="http://www.w3.org/2000/svg" viewBox="0 0 18.42 18.42"><defs><style>.cls-1{fill:#fff;}.cls-2{fill:#778cc5;}</style></defs><g id="Слой_2" data-name="Слой 2"><g id="PRINT1"><g id="сайт"><path class="cls-1" d="M9.21,18.42h0a9.21,9.21,0,0,0,9.21-9.21h0A9.21,9.21,0,0,0,9.21,0h0A9.21,9.21,0,0,0,0,9.21H0A9.21,9.21,0,0,0,9.21,18.42Z"/><path class="cls-2" d="M12.15,11.42l-.5.5a.31.31,0,0,1-.42,0L9.66,10.34a.36.36,0,0,0-.51,0l-.79.79a.36.36,0,0,1-.6-.17L6.66,6.87a.36.36,0,0,1,.44-.44l4.09,1.09a.37.37,0,0,1,.17.61l-.79.78a.36.36,0,0,0,0,.51L12.15,11A.29.29,0,0,1,12.15,11.42Z"/></g></g></g></svg>