<svg xmlns="http://www.w3.org/2000/svg" viewBox="0 0 19.32 19.32"><defs><style>.cls-1{fill:#535da6;}</style></defs><g id="Слой_2" data-name="Слой 2"><g id="PRINT1"><g id="соц_сети" data-name="соц сети"><rect class="cls-1" x="5.82" y="8.16" width="1.65" height="5.1"/><path class="cls-1" d="M6.64,7.46a1,1,0,1,0-1-1A1,1,0,0,0,6.64,7.46Z"/><path class="cls-1" d="M10.11,10.69c0-.75.34-1.19,1-1.19s.9.43.9,1.19v2.54l1.64,0V10.12A1.86,1.86,0,0,0,11.71,8a1.84,1.84,0,0,0-1.6.88V8.16H8.53v5.1h1.58Z"/><path class="cls-1" d="M9.66,19.32a9.66,9.66,0,1,1,9.66-9.66A9.67,9.67,0,0,1,9.66,19.32Zm0-18.21A8.55,8.55,0,1,0,18.2,9.66,8.57,8.57,0,0,0,9.66,1.11Z"/></g></g></g></svg>