<svg xmlns="http://www.w3.org/2000/svg" viewBox="0 0 18.42 18.42"><defs><style>.cls-1{fill:#fff;}.cls-2{fill:#778cc5;}</style></defs><g id="Слой_2" data-name="Слой 2"><g id="PRINT1"><g id="тел"><path class="cls-1" d="M9.21,18.42h0a9.21,9.21,0,0,0,9.21-9.21h0A9.21,9.21,0,0,0,9.21,0h0A9.21,9.21,0,0,0,0,9.21H0A9.21,9.21,0,0,0,9.21,18.42Z"/><path class="cls-2" d="M12,9l-.76.89L10.43,11l-.75.88a2.58,2.58,0,0,1-3.42.44.85.85,0,0,1-.16-1.25l.61-.72A.85.85,0,0,1,7.34,10a.84.84,0,0,1,.5.17A.82.82,0,0,0,9,10.1l.18-.22L10,8.81l.18-.22a.82.82,0,0,0,0-1.13.8.8,0,0,1-.06-1.12l.62-.73a.84.84,0,0,1,1.25,0A2.56,2.56,0,0,1,12,9Z"/></g></g></g></svg>